<svg width="603" height="580" viewBox="0 0 603 580" fill="none" xmlns="http://www.w3.org/2000/svg">
<g clip-path="url(#clip0_2_247)">
<path d="M526 578H1C0.447715 578 0 578.448 0 579C0 579.552 0.447715 580 1 580H526C526.552 580 527 579.552 527 579C527 578.448 526.552 578 526 578Z" fill="#1B1B1B"/>
<path d="M351.838 211.557L341.774 206.53V193.939V181.293H337.174C337.174 181.293 331.574 172.957 331.574 172.375C331.574 171.793 327.029 162.003 326.583 159.248C326.138 156.493 324.838 150.339 325.238 145.457C325.638 140.575 325.692 139.757 325.692 139.757L323.874 131.575L325.756 117.503L321.365 114.512C321.365 114.512 316.656 109.739 316.656 104.639C316.656 99.539 318.202 94.2299 320.465 91.9572C322.729 89.6845 331.201 82.8209 344.765 84.1754C358.329 85.5299 374.174 97.1299 374.174 97.1299L377.356 96.2208C377.356 96.2208 387.547 98.1299 392.683 106.284C397.82 114.439 396.32 136.284 396.32 136.284L395.31 140.321V142.621L394.465 146.13L391.865 146.412C391.865 146.412 391.356 153.984 387.72 157.157C384.083 160.33 384.501 160.902 384.501 160.902V191.112H370.71L367.229 201.112L351.838 218.875L349.765 214.266L351.838 211.557Z" fill="#F8EFE5"/>
<path d="M361.891 207.586L341.772 232.013V206.531L361.891 207.586Z" fill="#F8EFE5"/>
<path d="M341.773 210.191V185.418" stroke="#1B1B1B" stroke-width="1.4059" stroke-linecap="round" stroke-linejoin="round"/>
<path d="M384.5 191.101V153.801" stroke="#1B1B1B" stroke-width="1.4059" stroke-linecap="round" stroke-linejoin="round"/>
<path d="M343.219 152.149C341.401 153.603 338.201 153.894 336.782 153.785C335.064 153.658 334.564 152.676 334.591 151.558C334.714 146.127 335.255 140.714 336.21 135.367" stroke="#1B1B1B" stroke-width="1.4059" stroke-linecap="round" stroke-linejoin="round"/>
<path d="M334.594 129.474C333.327 128.809 331.897 128.519 330.471 128.64C329.046 128.761 327.685 129.287 326.548 130.156" stroke="#1B1B1B" stroke-width="1.4059" stroke-linecap="round" stroke-linejoin="round"/>
<path d="M334.181 103.293C330.583 107.035 327.804 111.486 326.023 116.361C324.241 121.237 323.496 126.431 323.835 131.611C323.835 131.611 325.654 137.666 325.654 139.793C325.654 141.92 323.899 148.984 327.081 160.493C329.003 167.078 331.698 173.413 335.108 179.366C335.551 180.147 336.193 180.797 336.969 181.249C337.746 181.701 338.628 181.939 339.526 181.938H349.608C352.326 181.938 354.976 181.082 357.181 179.493C363.317 175.093 375.717 165.947 377.763 162.575C380.49 158.029 380.562 150.647 380.562 150.647" stroke="#1B1B1B" stroke-width="1.4059" stroke-linecap="round" stroke-linejoin="round"/>
<path d="M380.759 145.491C383.223 145.491 384.805 144.164 386.668 141.964C388.387 139.955 389.741 136.791 389.05 131.055C387.578 118.737 375.941 120.755 375.941 130.373" stroke="#1B1B1B" stroke-width="1.4059" stroke-linecap="round" stroke-linejoin="round"/>
<path d="M376.469 126.983C376.469 126.983 367.451 132.438 358.36 114.547" stroke="#1B1B1B" stroke-width="1.4059" stroke-linecap="round" stroke-linejoin="round"/>
<path d="M354.484 110.895C354.484 110.895 337.33 95.9677 325.721 107.577" stroke="#1B1B1B" stroke-width="1.4059" stroke-linecap="round" stroke-linejoin="round"/>
<path d="M342.454 129.341C346.699 128.059 352.454 128.432 354.481 129.132C356.508 129.832 361.172 134.741 361.172 134.741" stroke="#1B1B1B" stroke-width="1.4059" stroke-linecap="round" stroke-linejoin="round"/>
<path d="M386.812 157.575C386.812 157.575 393.685 155.184 391.403 146.402" stroke="#1B1B1B" stroke-width="1.4059" stroke-linecap="round" stroke-linejoin="round"/>
<path d="M396.156 150.903C395.886 149.22 395.313 147.6 394.465 146.121" stroke="#1B1B1B" stroke-width="1.4059" stroke-linecap="round" stroke-linejoin="round"/>
<path d="M375.939 96.0273C392.157 97.8455 396.32 112.164 396.32 118.373V136.273" stroke="#1B1B1B" stroke-width="1.4059" stroke-linecap="round" stroke-linejoin="round"/>
<path d="M378.445 100.721C378.445 100.721 368.954 91.7119 356.8 86.9392C344.645 82.1665 327.618 82.7665 320.109 92.3938C312.6 102.021 318.4 111.666 322 115.266" stroke="#1B1B1B" stroke-width="1.4059" stroke-linecap="round" stroke-linejoin="round"/>
<path d="M338.174 161.458C343.964 162.258 347.792 160.895 349.228 160.895C350.664 160.895 349.228 166.185 344.328 166.913C343.031 167.07 341.714 166.911 340.492 166.449" stroke="#1B1B1B" stroke-width="1.4059" stroke-linecap="round" stroke-linejoin="round"/>
<path d="M348.237 138.54C347.951 137.215 348.436 135.986 349.319 135.796C350.203 135.605 351.151 136.525 351.436 137.851C351.722 139.176 351.237 140.404 350.353 140.595C349.47 140.785 348.522 139.865 348.237 138.54Z" fill="#1B1B1B"/>
<path d="M329.026 139.247C328.74 137.922 329.225 136.693 330.108 136.503C330.992 136.312 331.94 137.232 332.225 138.558C332.511 139.883 332.026 141.111 331.143 141.302C330.259 141.492 329.311 140.572 329.026 139.247Z" fill="#1B1B1B"/>
<path d="M264.174 250.651C271.247 245.069 306.81 217.014 311.774 212.014C316.385 207.355 322.458 204.422 328.974 203.705L335.51 202.678L334.601 191.56H341.801V232.014L367.255 201.105L370.737 191.105H389.955L388.137 200.196L389.51 200.733L404.192 206.487C404.555 206.587 404.919 206.705 405.274 206.842L405.737 207.005C413.119 209.796 418.319 217.333 424.501 233.833C432.601 255.423 446.219 299.832 449.955 313.832C451.474 319.532 450.955 324.105 448.41 327.469C445.146 331.723 438.628 333.878 429.046 333.878C423.528 333.878 415.246 332.323 406.483 330.669C399.01 329.26 390.546 327.669 382.974 326.941L384.246 327.323L380.355 338.941C380.355 338.941 356.919 340.623 348.256 347.005C342.613 351.251 337.397 356.038 332.683 361.296L291.774 361.078L288.838 356.832C287.19 354.447 286.056 351.745 285.508 348.899C284.961 346.052 285.011 343.122 285.656 340.296L301.928 262.451L300.174 263.469C291.701 268.351 280.683 274.742 276.31 277.469C273.765 279.06 267.819 282.778 261.238 282.778C258.941 282.764 256.672 282.282 254.568 281.362C252.464 280.441 249.001 277.423 249.001 277.423L264.174 250.651ZM413.137 305.487L401.019 277.878L391.465 305.669L413.137 305.487Z" fill="#EBC7B5"/>
<path d="M298.517 278.877L304.508 250.195" stroke="#1B1B1B" stroke-width="1.4059" stroke-linecap="round" stroke-linejoin="round"/>
<path d="M335.458 201.992L334.585 191.556H341.776V232.011L367.23 201.102L370.721 191.102H389.203" stroke="#1B1B1B" stroke-width="1.4059" stroke-linecap="round" stroke-linejoin="round"/>
<path d="M270.998 281.036C273.069 280.121 275.065 279.048 276.971 277.827C278.544 276.845 289.08 270.664 291.898 269" stroke="#1B1B1B" stroke-width="1.4059" stroke-linecap="round" stroke-linejoin="round"/>
<path d="M298.517 278.877L304.508 250.195" stroke="#1B1B1B" stroke-width="1.4059" stroke-linecap="round" stroke-linejoin="round"/>
<path d="M449.96 313.828C453.596 327.464 445.414 333.828 429.051 333.828C416.323 333.828 389.514 325.646 372.687 326.555C371.215 326.619 369.767 326.952 368.414 327.537" stroke="#1B1B1B" stroke-width="1.4059" stroke-linecap="round" stroke-linejoin="round"/>
<path d="M355.177 308.301C357.94 307.528 360.753 306.945 363.595 306.555C377.232 304.737 413.141 305.482 413.141 305.482C413.141 305.482 401.632 278.11 389.923 254.246" stroke="#1B1B1B" stroke-width="1.4059" stroke-linecap="round" stroke-linejoin="round"/>
<path d="M340.237 313.667C343.906 312.63 347.426 311.123 350.71 309.186L370.874 229.131C377.383 201.386 399.301 204.931 405.273 206.84C404.919 206.704 404.555 206.586 404.192 206.486L391.019 201.295C389.94 200.869 388.788 200.659 387.628 200.677C376.592 200.868 368.974 207.177 363.937 223.004C361.992 229.122 349.701 277.413 340.237 313.667Z" fill="#1B1B1B"/>
<path d="M329.61 354.44C329.61 354.44 330.519 350.503 332.674 342.312C335.389 344.002 338.318 345.32 341.383 346.231L339.565 353.34L329.61 354.44Z" fill="#1B1B1B"/>
<path d="M318.602 215.05C320.82 206.796 323.339 202.187 335.875 201.414V202.532C332.02 204.45 328.602 208.523 326.893 216.387L300.293 355.096L293.166 354.386C293.166 354.386 315.921 225.087 318.602 215.05Z" fill="#1B1B1B"/>
<path d="M318.406 337.539L314.661 354.439" stroke="#1B1B1B" stroke-width="1.4059" stroke-linecap="round" stroke-linejoin="round"/>
<path d="M341.781 232.012L321.745 322.466" stroke="#1B1B1B" stroke-width="1.4059" stroke-linecap="round" stroke-linejoin="round"/>
<path d="M406.553 305.484L422.008 305.739" stroke="#1B1B1B" stroke-width="1.4059" stroke-linecap="round" stroke-linejoin="round"/>
<path d="M78.4879 334.645C78.4879 345.717 89.6243 354.699 103.37 354.699C117.115 354.699 128.297 345.717 128.297 334.645H78.4879Z" fill="#F8EFE5"/>
<path d="M103.365 354.699H110.529C111.648 354.698 112.756 354.918 113.79 355.345C114.824 355.773 115.763 356.4 116.555 357.191C117.346 357.983 117.973 358.922 118.401 359.956C118.829 360.99 119.048 362.098 119.047 363.217H87.6833C87.6833 360.958 88.5807 358.792 90.1782 357.194C91.7757 355.597 93.9423 354.699 96.2015 354.699H103.365Z" fill="#F8EFE5"/>
<path d="M495.062 496.004L471.917 365.805" stroke="#1B1B1B" stroke-width="1.26531" stroke-linecap="round" stroke-linejoin="round"/>
<path d="M485.007 420.452C485.299 422.021 484.263 423.531 482.694 423.823C481.124 424.115 479.615 423.079 479.323 421.509L470.408 373.595C470.116 372.026 471.151 370.517 472.721 370.225C474.291 369.932 475.8 370.968 476.092 372.538L485.007 420.452Z" fill="#EBC7B5"/>
<path d="M477.391 533.137C477.045 532.498 476.656 531.884 476.225 531.299C503.772 412.937 535.875 378.605 535.875 378.605C512.918 427.744 488.881 499.064 477.679 533.669L477.391 533.137Z" fill="#F8EFE5"/>
<path d="M494.741 549.768C493.832 451.968 495.432 366.832 495.432 366.832C506.096 421.077 500.378 510.75 496.95 551.186C496.205 550.732 495.468 550.259 494.741 549.768Z" fill="#1B1B1B"/>
<path d="M511.435 549.906C511.435 549.906 502.77 415.811 476.572 347.637C476.573 347.655 491.656 444.979 511.435 549.906Z" fill="#F8EFE5"/>
<path d="M487.742 496.916L521.141 349.664" stroke="#1B1B1B" stroke-width="1.26531" stroke-linecap="round" stroke-linejoin="round"/>
<path d="M515.305 360.431C515.72 358.599 517.54 357.451 519.368 357.866C521.197 358.281 522.343 360.102 521.928 361.933L509.261 417.769C508.845 419.6 507.026 420.748 505.197 420.333C503.369 419.918 502.223 418.097 502.638 416.266L515.305 360.431Z" fill="#EBC7B5"/>
<path d="M103.366 354.699C103.366 354.699 105.038 355.208 107.193 355.817C111.475 357.017 117.675 358.545 116.556 357.217L116.447 357.099C116.06 356.728 115.737 356.295 115.493 355.817C115.315 355.433 115.237 355.01 115.266 354.587C115.294 354.165 115.429 353.756 115.656 353.399C116.424 352.242 117.424 351.258 118.593 350.508C119.056 350.163 119.575 349.808 120.156 349.445L120.229 349.39L120.702 349.035C121.463 348.193 122.303 347.426 123.211 346.745L111.393 344.672L104.42 353.399L103.366 354.699Z" fill="#F8EFE5"/>
<path d="M83.5258 346.746C84.4104 347.395 85.224 348.135 85.953 348.955L86.5621 349.428H86.6257C87.153 349.755 87.6348 350.082 88.0621 350.4C89.2537 351.162 90.2751 352.162 91.0621 353.337C91.2898 353.694 91.4241 354.102 91.4527 354.525C91.4813 354.947 91.4032 355.37 91.2257 355.755C90.9953 356.229 90.6882 356.662 90.3166 357.037L90.2076 357.155C89.0894 358.518 95.2893 356.955 99.5712 355.755C101.726 355.146 103.398 354.637 103.398 354.637L102.362 353.337L95.3894 344.609L83.5258 346.746Z" fill="#F8EFE5"/>
<path d="M78.4852 332.227H128.258V334.645H78.4852V332.227Z" fill="#1B1B1B"/>
<path d="M91.2381 355.836H115.493C115.315 355.452 115.237 355.029 115.266 354.606C115.294 354.184 115.429 353.775 115.656 353.418H91.1109C91.3328 353.778 91.4608 354.188 91.483 354.611C91.5052 355.033 91.421 355.455 91.2381 355.836Z" fill="#1B1B1B"/>
<path d="M112.462 578.289H136.18L132.462 576.834L119.052 577.007L112.798 576.834L112.807 568.698L119.052 561.253V370.453H112.462V574.734H98.0707L95.1889 578.289H112.462Z" fill="#1B1B1B" stroke="#1B1B1B" stroke-width="1.4059" stroke-linecap="round" stroke-linejoin="round"/>
<path d="M58.595 360.492V370.492H153.267C153.267 370.492 152.413 367.574 153.977 360.492H58.595Z" fill="#EBC7B5"/>
<path d="M474.085 525.755C474.194 530.294 474.412 534.839 474.74 539.391C475.17 545.452 475.776 551.533 476.558 557.636C476.64 558.246 476.722 558.846 476.812 559.455C477.812 566.661 479.085 573.891 480.631 581.145H510.067C511.612 573.873 512.885 566.642 513.885 559.455C513.976 558.846 514.058 558.246 514.14 557.636C514.952 551.546 515.558 545.464 515.958 539.391C516.285 534.839 516.503 530.294 516.612 525.755C517.127 504.494 515.298 483.242 511.158 462.382C510.812 460.564 510.443 458.77 510.049 457H480.649C480.255 458.818 479.885 460.612 479.54 462.382C475.4 483.242 473.571 504.494 474.085 525.755Z" fill="#F8EFE5"/>
<path d="M473.876 536.086C474.306 542.147 474.912 548.228 475.694 554.331C475.776 554.94 475.857 555.54 475.948 556.15H513.021C513.112 555.54 513.194 554.94 513.276 554.331C514.088 548.24 514.694 542.159 515.094 536.086H473.876Z" fill="#1B1B1B"/>
<path d="M478.687 459.077H510.305C509.959 457.259 509.59 455.465 509.196 453.695H479.796C479.396 455.489 479.026 457.283 478.687 459.077Z" fill="#1B1B1B"/>
<path d="M189.377 568.856C186.708 568.279 183.928 568.516 181.396 569.538L180.868 569.656H180.541C179.477 569.656 178.405 569.656 177.332 569.547C175.014 569.401 172.705 569.138 170.386 568.965C163.65 568.456 157.432 568.056 150.696 568.965C138.45 570.647 125.305 568.901 112.796 568.683V564.829C112.796 562.956 112.45 560.738 115.75 558.465C119.05 556.192 122.905 555.447 133.932 553.083C144.959 550.719 154.041 542.492 154.041 542.492L154.75 535.556L157.068 534.02H169.95V541.974H181.768L188.814 542.42L192.25 553.329L191.268 564.483L189.377 568.856Z" fill="#F8EFE5"/>
<path d="M115.758 558.492C119.049 556.219 122.913 555.474 133.94 553.11C144.967 550.747 154.049 542.52 154.049 542.52L154.758 535.583L157.076 534.02H167.54L169.44 535.038L169.958 541.974H181.776L188.821 542.42L192.258 553.329L191.276 564.483L189.167 569.31C187.338 568.896 185.447 568.831 183.594 569.119C179.049 569.819 163.594 569.647 162.912 569.538H163.031C160.444 569.096 157.789 569.289 155.294 570.101C152.694 570.047 150.103 569.992 147.549 569.965C141.476 569.91 135.44 569.529 129.367 569.274C123.849 569.056 118.34 569.274 112.822 569.174V568.592V564.783C112.84 562.974 112.458 560.756 115.758 558.492Z" fill="#F8EFE5"/>
<path d="M184.393 577.012H116.893C115.717 577.012 114.588 576.545 113.756 575.713C112.924 574.881 112.457 573.753 112.457 572.576V569.285H188.82V572.576C188.821 573.158 188.708 573.735 188.486 574.273C188.264 574.811 187.938 575.3 187.527 575.712C187.116 576.125 186.627 576.451 186.089 576.675C185.552 576.898 184.975 577.012 184.393 577.012Z" stroke="#1B1B1B" stroke-width="1.4059" stroke-linecap="round" stroke-linejoin="round"/>
<path d="M188.823 569.284C193.523 566.093 193.686 542.221 187.523 542.012H169.959" stroke="#1B1B1B" stroke-width="1.4059" stroke-linecap="round" stroke-linejoin="round"/>
<path d="M169.961 544.701V536.601C169.966 536.262 169.902 535.925 169.775 535.61C169.647 535.295 169.458 535.009 169.219 534.768C168.979 534.528 168.693 534.337 168.379 534.209C168.065 534.08 167.728 534.016 167.388 534.02H157.052C156.39 534.022 155.757 534.287 155.29 534.755C154.823 535.224 154.561 535.858 154.561 536.52V541.974L147.697 546.356C142.224 549.855 136.271 552.538 130.024 554.32L116.234 558.247C115.125 558.627 114.163 559.344 113.482 560.298C112.801 561.251 112.434 562.393 112.434 563.565V569.247" stroke="#1B1B1B" stroke-width="1.4059" stroke-linecap="round" stroke-linejoin="round"/>
<path d="M152.527 543.328L161.781 553.828" stroke="#1B1B1B" stroke-width="1.4059" stroke-linecap="round" stroke-linejoin="round"/>
<path d="M146.317 547.438L153.117 555.765" stroke="#1B1B1B" stroke-width="1.4059" stroke-linecap="round" stroke-linejoin="round"/>
<path d="M141.245 550.828L146 557.228" stroke="#1B1B1B" stroke-width="1.4059" stroke-linecap="round" stroke-linejoin="round"/>
<path d="M169.497 536.559L169.951 542.013L180.106 540.995C180.106 540.995 181.46 536.559 178.56 536.559H169.497Z" fill="#1B1B1B"/>
<path d="M338.056 389.658C350.147 362.894 360.147 354.74 380.865 354.74H408.138C440.011 354.74 460.565 346.74 472.047 329.285C459.483 362.012 437.22 399.285 422.883 423.339L422.429 424.103C418.83 430.096 413.745 435.057 407.666 438.507C401.586 441.957 394.719 443.778 387.729 443.794L297.729 443.339C315.484 436.521 326.665 414.93 338.056 389.658Z" fill="#F8EFE5"/>
<path d="M307.812 407.465L256.222 407.601L251.585 411.719C251.585 411.719 241.931 428.565 242.767 428.565H275.867C276.931 428.565 286.367 426.747 289.922 424.765C293.476 422.783 302.912 414.365 302.912 414.365L307.812 407.465Z" fill="#F8EFE5"/>
<path d="M443.75 348.984C434.05 352.221 422.268 353.83 408.141 353.83H380.868C360.868 353.83 349.959 361.103 337.232 389.284C330.468 404.275 323.441 419.002 314.505 429.511" stroke="#1B1B1B" stroke-width="1.4059" stroke-linecap="round" stroke-linejoin="round"/>
<path d="M420.005 218.867C477.341 227.54 487.369 274.567 480.005 307.467" stroke="#1B1B1B" stroke-width="1.4059" stroke-linecap="round" stroke-linejoin="round"/>
<path d="M439.091 239.664C443.335 241.722 447.28 244.346 450.818 247.464C463.7 258.928 468.091 276.437 466.382 293.309C463.436 323.027 449.109 338.764 405.473 338.764H378.2C358.2 338.764 335.409 348.764 322.746 376.946C309.055 407.464 301.182 428.527 270.927 428.527H243.655" stroke="#1B1B1B" stroke-width="1.4059" stroke-linecap="round" stroke-linejoin="round"/>
<path d="M272.082 306.284C279.701 301.673 286.774 296.214 293.164 290.012" stroke="#1B1B1B" stroke-width="1.4059" stroke-linecap="round" stroke-linejoin="round"/>
<path d="M164.664 351.512C156.837 359.121 151.028 369.812 153.755 384.284C157 401.103 164.273 419.693 179.209 431.466C193.228 442.502 190.418 440.421 190.418 440.421" stroke="#1B1B1B" stroke-width="1.4059" stroke-linecap="round" stroke-linejoin="round"/>
<path d="M267.229 444.739H387.729C394.876 444.736 401.899 442.879 408.114 439.35C414.328 435.82 419.52 430.739 423.183 424.603C440.574 395.439 470.274 345.83 479.547 309.094" stroke="#1B1B1B" stroke-width="1.4059" stroke-linecap="round" stroke-linejoin="round"/>
<path d="M275.862 444.738C284.499 444.738 300.717 444.738 300.717 466.711C300.717 488.684 297.517 578.293 297.517 578.293H304.79C304.79 578.293 307.99 484.929 307.99 466.747C307.99 444.775 329.953 444.775 329.953 444.775L275.862 444.738Z" fill="#1B1B1B" stroke="#1B1B1B" stroke-width="1.4059" stroke-linecap="round" stroke-linejoin="round"/>
<path d="M270.447 444.738C270.447 444.738 280.284 444.82 277.602 457.72L247.675 578.293H253.584L284.165 458.766C285.123 454.26 287.589 450.216 291.156 447.302L285.411 444.738H270.447Z" fill="#1B1B1B" stroke="#1B1B1B" stroke-width="1.4059" stroke-linecap="round" stroke-linejoin="round"/>
<path opacity="0.83" d="M373.401 444.737C373.401 444.737 376.21 444.864 380.965 444.828C392.837 444.737 399.147 463.292 399.147 463.292L435.828 578.291H443.383C443.383 578.291 421.71 509.473 413.383 483.482C405.056 457.492 404.165 456.619 426.965 418.301C426.965 418.301 417.474 437.337 401.237 442.246C389.201 447.655 373.401 444.737 373.401 444.737Z" fill="#1B1B1B" stroke="#1B1B1B" stroke-width="1.4059" stroke-linecap="round" stroke-linejoin="round"/>
<path d="M285.414 444.738H235.969" stroke="#1B1B1B" stroke-width="1.4059" stroke-linecap="round" stroke-linejoin="round"/>
<path d="M184.178 468.947C185.26 456.047 181.951 444.074 167.951 420.547C172.415 425.59 177.37 430.176 182.742 434.238C190.478 439.801 190.433 440.42 190.433 440.42L195.188 458.256L186.551 468.947H184.178Z" fill="#1B1B1B" stroke="#1B1B1B" stroke-width="1.4059" stroke-linecap="round" stroke-linejoin="round"/>
<path d="M364.724 330.65C366.542 329.741 368.488 327.014 368.488 327.014C368.488 327.014 370.079 320.259 366.606 315.677C363.133 311.096 355.17 308.305 355.17 308.305L334.897 315.986L323.024 321.214L313.297 330.65L305.624 342.314L306.452 345.041L307.97 345.423C307.97 345.423 310.524 345.159 310.524 344.514C310.524 343.868 320.406 335.423 320.406 335.423L328.479 328.377L326.452 336.441C326.298 337.079 326.306 337.746 326.475 338.381C326.643 339.015 326.966 339.598 327.415 340.077C328.933 341.596 334.915 344.168 334.915 344.168L343.597 346.995H348.288C348.288 346.995 350.897 342.786 350.897 341.196C350.897 339.605 349.27 336.441 349.27 336.441C354.621 335.092 359.804 333.149 364.724 330.65Z" fill="#F8EFE5"/>
<path d="M329.626 325.059C329.626 325.059 327.236 333.049 326.517 337.195C326.37 337.997 326.514 338.826 326.924 339.531C327.335 340.236 327.983 340.772 328.754 341.04L332.672 342.313" stroke="#1B1B1B" stroke-width="1.4059" stroke-linecap="round" stroke-linejoin="round"/>
<path d="M334.97 327.273C334.97 327.273 332.579 335.264 331.87 339.41C331.718 340.211 331.86 341.041 332.269 341.747C332.678 342.453 333.327 342.988 334.097 343.255L338.016 344.528" stroke="#1B1B1B" stroke-width="1.4059" stroke-linecap="round" stroke-linejoin="round"/>
<path d="M340.275 330.457C339.045 334.12 338.025 337.85 337.22 341.63C337.07 342.432 337.212 343.262 337.621 343.969C338.029 344.676 338.677 345.214 339.448 345.484L344.602 347.157C345.44 347.412 346.341 347.357 347.141 347.002C347.941 346.646 348.586 346.014 348.957 345.221L350.675 341.684C350.944 341.134 351.021 340.51 350.892 339.911C350.764 339.313 350.437 338.775 349.966 338.384L349.457 337.966C348.976 337.572 348.36 337.382 347.741 337.434C347.121 337.487 346.547 337.779 346.139 338.248L344.32 340.266" stroke="#1B1B1B" stroke-width="1.4059" stroke-linecap="round" stroke-linejoin="round"/>
<path d="M368.406 327.539C366.234 328.53 365.179 329.612 363.024 331.457C360.722 333.359 358.046 334.757 355.169 335.56C352.293 336.364 349.279 336.555 346.324 336.121L343.597 341.866" stroke="#1B1B1B" stroke-width="1.4059" stroke-linecap="round" stroke-linejoin="round"/>
<path d="M328.35 329.548L320.286 334.911C320.085 335.082 319.897 335.267 319.723 335.466L311.795 343.838C311.193 344.536 310.396 345.037 309.506 345.277C308.617 345.516 307.676 345.484 306.805 345.184L306.459 345.057C306.204 344.956 305.975 344.799 305.789 344.598C305.604 344.396 305.466 344.155 305.386 343.893C305.307 343.631 305.287 343.354 305.33 343.083C305.372 342.812 305.476 342.555 305.632 342.329C307.777 339.275 310.895 334.229 315.441 329.438C320.895 323.702 323.368 321.511 327.259 319.875C334.468 316.838 344.532 311.393 355.195 308.32" stroke="#1B1B1B" stroke-width="1.4059" stroke-linecap="round" stroke-linejoin="round"/>
<path d="M368.413 327.537C368.413 327.537 371.613 311.11 355.176 308.301" stroke="#1B1B1B" stroke-width="1.4059" stroke-linecap="round" stroke-linejoin="round"/>
<path d="M206.102 496.323C210.975 509.859 214.284 518.723 214.284 518.723C228.248 520.668 237.875 516.677 243.375 506.995L232.02 456.25" fill="#1B1B1B"/>
<path d="M206.102 496.323C210.975 509.859 214.284 518.723 214.284 518.723C228.248 520.668 237.875 516.677 243.375 506.995L232.02 456.25" stroke="#1B1B1B" stroke-width="1.4059" stroke-linecap="round" stroke-linejoin="round"/>
<path d="M201.929 465.518L233.411 384.754L253.047 371.118L248.711 365.036L206.347 359.472C190.12 357.318 169.983 369.027 183.056 415.7C187.265 430.754 189.602 440.009 195.247 456.827" fill="#1B1B1B"/>
<path d="M201.929 465.518L233.411 384.754L253.047 371.118L248.711 365.036L206.347 359.472C190.12 357.318 169.983 369.027 183.056 415.7C187.265 430.754 189.602 440.009 195.247 456.827" stroke="#1B1B1B" stroke-width="1.4059" stroke-linecap="round" stroke-linejoin="round"/>
<path d="M332.688 361.293H239.642C234.902 361.491 230.332 363.111 226.525 365.942C222.718 368.772 219.851 372.683 218.297 377.166L161.779 532.011C169.733 538.32 178.815 542.011 189.961 542.011L251.933 411.011C252.435 409.95 253.227 409.053 254.219 408.426C255.21 407.798 256.36 407.465 257.533 407.466H307.815C315.76 392.575 318.251 386.893 322.742 376.947C325.23 371.247 328.585 365.967 332.688 361.293Z" fill="#1B1B1B" stroke="#1B1B1B" stroke-width="1.4059" stroke-linecap="round" stroke-linejoin="round"/>
<path d="M210.873 500.266L236.109 446.902" stroke="#F8EFE5" stroke-width="1.4059" stroke-linecap="round" stroke-linejoin="round"/>
<path d="M240.852 361.348H239.642C234.909 361.542 230.343 363.153 226.537 365.974C222.731 368.794 219.86 372.694 218.297 377.166L179.624 478.075" stroke="#F8EFE5" stroke-width="1.4059" stroke-linecap="round" stroke-linejoin="round"/>
<path d="M389.501 137C389.501 136 389.501 136.5 389.501 135.5C389.501 134.53 390.001 132.5 389.501 131.5L404.902 146.466C405.085 146.653 405.188 146.904 405.188 147.166C405.188 147.428 405.085 147.679 404.902 147.866L403.52 149.284C403.334 149.467 403.085 149.569 402.824 149.569C402.564 149.569 402.314 149.467 402.129 149.284L389.501 137Z" fill="#EBC7B5"/>
<path d="M369.003 112.202L379.5 122.5C378.858 122.732 378.484 123.018 378 123.5C377.516 123.982 377.234 124.858 377 125.5L366.276 115.102L363.031 109.211L369.003 112.202Z" fill="#EBC7B5"/>
<path d="M402.153 149.339C402.339 149.522 402.589 149.624 402.849 149.624C403.109 149.624 403.359 149.522 403.544 149.339L404.926 147.912C405.019 147.822 405.092 147.713 405.143 147.594C405.193 147.474 405.219 147.346 405.219 147.217C405.219 147.087 405.193 146.959 405.143 146.839C405.092 146.72 405.019 146.612 404.926 146.521L398.717 140.648C398.823 140.83 398.867 141.04 398.843 141.249C398.818 141.457 398.726 141.652 398.581 141.803L397.208 143.221C397.022 143.407 396.77 143.511 396.508 143.511C396.245 143.511 395.994 143.407 395.808 143.221L402.153 149.339Z" fill="#1B1B1B"/>
<path d="M363.027 109.191L366.273 115.082L369 112.228L363.027 109.191Z" fill="#1B1B1B"/>
<path d="M332.683 361.292H172.974C171.806 361.293 170.662 360.956 169.68 360.322C168.697 359.688 167.919 358.785 167.438 357.72L128.884 272.42C128.605 271.805 128.484 271.13 128.53 270.456C128.577 269.782 128.79 269.13 129.15 268.559C129.511 267.988 130.007 267.515 130.595 267.183C131.183 266.851 131.845 266.67 132.52 266.656L249.056 265.02C250.398 265.006 251.715 265.384 252.845 266.108C253.975 266.831 254.87 267.868 255.42 269.093L293.601 354.438H338.492L332.683 361.292Z" fill="#F8EFE5" stroke="#1B1B1B" stroke-width="1.4" stroke-linecap="round" stroke-linejoin="round"/>
<path d="M200.58 324.412C193.602 318.59 191.231 309.933 195.284 305.075C199.336 300.218 208.278 301 215.256 306.822C222.234 312.644 224.605 321.301 220.552 326.158C216.5 331.016 207.557 330.234 200.58 324.412Z" fill="#EBC7B5"/>
<path d="M150.909 292.92H168.109L160.346 275.711H143.137L150.909 292.92Z" fill="#EBC7B5"/>
<path d="M144.425 278.447H161.625L160.343 275.711H143.134L144.425 278.447Z" fill="#1B1B1B"/>
<path d="M79.899 375.785C79.899 375.785 81.912 411.954 80.1356 439.636C78.7255 462.392 76.9483 485.464 68.1446 506.616C64.871 498.492 59.9044 491.78 54.74 484.69C63.3602 487.263 61.9617 472.158 62.7513 467.007C64.1475 458.004 65.629 449.019 67.1956 440.05C70.3707 421.917 69.2554 423.101 73.1696 405.11C75.2024 395.772 79.899 375.785 79.899 375.785Z" fill="#F8EFE5"/>
<path d="M68.9803 521.83C50.0599 472.607 37.6275 434.07 7.367 390.464C30.0805 407.217 45.3599 436.68 57.3737 461.43C69.3874 486.181 63.992 487.813 71.7726 514.164L66.4714 508.974" fill="#EBC7B5"/>
<path d="M71.7486 516.062C69.9001 515.927 68.0422 515.995 66.2086 516.265C66.2254 516.148 66.3219 516.052 66.3748 515.94C78.519 492.707 83.5345 476.244 111.438 452.387C95.553 473.98 85.1086 495.548 75.5294 516.34L71.7486 516.062Z" fill="#F8EFE5"/>
<path d="M55.9067 515.728C53.0722 516.389 50.2353 517.034 47.3961 517.664C46.548 514.939 45.8899 512.159 45.4264 509.343C41.675 480.144 33.1856 451.752 20.2929 425.286C38.3444 443.038 50.7723 465.711 56.0275 490.477C57.4392 497.202 59.2519 505.926 59.5261 514.121C58.2803 514.563 57.0703 515.101 55.9067 515.728Z" fill="#F8EFE5"/>
<path d="M70.8968 517.731L69.3898 517.711C67.0813 517.677 64.7836 517.93 62.5615 518.462L59.7731 518.408C62.3543 509.071 65.2978 499.81 68.4856 490.64C73.3536 476.622 78.911 462.821 85.158 449.239C88.2861 442.464 91.5835 435.746 95.05 429.083C97.162 424.996 105.227 410.594 105.227 410.594C105.227 410.594 90.8122 453.797 86.0987 470.848C81.7381 486.703 77.4853 502.558 70.8968 517.731Z" fill="#EBC7B5"/>
<path d="M60.1708 517.815C58.9311 518.329 57.7322 518.936 56.5843 519.632C54.1711 520.321 51.7483 520.993 49.3159 521.649C35.4608 491.869 15.3795 464.651 -4.55072 437.801C25.0548 457.655 47.7395 486.002 60.1708 517.815Z" fill="#EBC7B5"/>
<path d="M31.1846 509.129C31.1846 524.529 43.9119 537.011 59.6118 537.011C75.3118 537.011 88.0391 524.529 88.0391 509.129H31.1846Z" fill="#F8EFE5"/>
<path d="M31.1846 505.582H88.0391V509.118H31.1846V505.582Z" fill="#1B1B1B"/>
<path d="M89.6406 521.129H31.1771" stroke="#1B1B1B" stroke-width="1.63787" stroke-linecap="round" stroke-linejoin="round"/>
<path d="M77.2258 521.129L95.8984 577.838" stroke="#1B1B1B" stroke-width="1.63787" stroke-linecap="round" stroke-linejoin="round"/>
<path d="M43.5938 521.129L24.7665 578.292" stroke="#1B1B1B" stroke-width="1.63787" stroke-linecap="round" stroke-linejoin="round"/>
<path d="M195.181 571.1V563.891L197.453 559.9L203.917 555.645L212.835 533.409L211.39 525.618L213.335 522.418L229.881 523.327L233.008 525.054L234.044 527.654L236.426 525.282L243.062 517.491L242.499 513.473C242.499 513.473 244.926 513.473 246.599 516.564C248.271 519.654 252.008 524.991 252.008 531.636C252.008 538.282 233.317 562.591 233.317 562.591L226.771 571.073L195.181 571.1Z" fill="#F8EFE5"/>
<path d="M235.306 531.786L233.616 526.286C233.364 525.47 232.87 524.75 232.199 524.223C231.529 523.695 230.713 523.384 229.861 523.331L215.716 522.422C215.035 522.38 214.355 522.504 213.732 522.783C213.11 523.061 212.565 523.487 212.143 524.022C211.744 524.528 211.466 525.12 211.332 525.75C211.198 526.381 211.211 527.034 211.37 527.658L212.834 533.413L205.361 553.295C204.761 554.895 203.632 556.243 202.161 557.113L197.47 559.904C196.778 560.315 196.205 560.899 195.806 561.599C195.408 562.298 195.198 563.09 195.197 563.895V571.104H226.77C226.77 571.104 247.243 545.495 251.77 534.058C252.313 530.876 251.921 527.605 250.643 524.64C249.077 521.184 247.335 517.81 245.425 514.531C245.425 514.531 244.961 513.504 242.497 513.504C242.497 513.504 245.516 519.868 234.506 526.568" stroke="#1B1B1B" stroke-width="1.4059" stroke-linecap="round" stroke-linejoin="round"/>
<path d="M195.182 571.105V576.432C195.182 576.678 195.231 576.921 195.325 577.148C195.419 577.374 195.557 577.58 195.731 577.753C195.905 577.927 196.112 578.064 196.339 578.157C196.566 578.25 196.81 578.297 197.055 578.296L229.2 578.223C229.758 578.225 230.307 578.09 230.8 577.83C231.293 577.57 231.714 577.193 232.028 576.732L255.564 542.205C256.077 541.46 256.417 540.61 256.562 539.717C256.707 538.824 256.651 537.911 256.4 537.042C255.882 535.305 253.955 533.124 252.591 531.051" stroke="#1B1B1B" stroke-width="1.4059" stroke-linecap="round" stroke-linejoin="round"/>
<path d="M212.265 536.285L228.383 536.758" stroke="#1B1B1B" stroke-width="1.4059" stroke-linecap="round" stroke-linejoin="round"/>
<path d="M209.299 543.578L225.172 544.078" stroke="#1B1B1B" stroke-width="1.4059" stroke-linecap="round" stroke-linejoin="round"/>
<path d="M206.103 551.102L220.539 551.42" stroke="#1B1B1B" stroke-width="1.4059" stroke-linecap="round" stroke-linejoin="round"/>
<path d="M196.618 561.258H218.727" stroke="#1B1B1B" stroke-width="1.4059" stroke-linecap="round" stroke-linejoin="round"/>
<path d="M241.173 510.285L242.991 516.158C243.165 516.966 243.018 517.81 242.582 518.512C240.719 521.909 237.924 524.703 234.528 526.567" stroke="#1B1B1B" stroke-width="1.4059" stroke-linecap="round" stroke-linejoin="round"/>
<path d="M217.542 519.066L218.633 522.285" stroke="#1B1B1B" stroke-width="1.4059" stroke-linecap="round" stroke-linejoin="round"/>
<path d="M228.49 222.037C222.121 215.516 218.057 212.587 218.121 207.133C217.51 221.136 212.333 230.73 198.194 231.663C198.249 231.664 204.063 231.278 210.791 238.176C217.276 244.816 242.569 274.099 245.43 277.414C246.979 279.11 248.857 280.473 250.95 281.418C253.043 282.363 255.306 282.872 257.602 282.913C264.18 282.991 270.166 279.347 272.732 277.785L272.737 277.782L263.478 252.551L259.709 249.672C255.388 246.002 234.168 227.85 228.49 222.037Z" fill="#EBC7B5"/>
<path d="M197.959 232.166C197.959 232.166 203.701 231.679 210.61 238.679C213.889 242.045 221.963 251.178 229.498 259.813" stroke="#1B1B1B" stroke-width="1.4059" stroke-linecap="round" stroke-linejoin="round"/>
<path d="M263.868 252.453C263.868 252.453 234.386 227.676 228.098 221.238C221.81 214.8 218.217 211.121 218.281 205.667" stroke="#1B1B1B" stroke-width="1.4059" stroke-linecap="round" stroke-linejoin="round"/>
<path d="M216.144 218.646C216.144 218.646 212.222 231.991 199.742 231.753C187.262 231.515 184.447 228.927 184.447 228.927L175.191 221.308L172.039 219.553L167.747 218.075L166.947 214.229L160.611 211.881L157.907 209.849L139.483 190.939C139.483 190.939 136.036 188.771 139.99 188.818C143.945 188.865 144.369 189.097 144.369 189.097L154.49 197.399L152.572 188.921L158.013 190.058L162.649 199.395L162.352 196.037L165.955 195.052L168.647 198.057L170.321 203.304L173.658 203.343L175.12 201.17L177.758 202.564L178.464 203.591C178.464 203.591 194.627 205.282 198.564 203.746C202.5 202.211 203.045 199.163 202.555 197.548C202.065 195.933 197.785 187.291 197.242 185.548C196.699 183.805 196.215 180.917 197.538 179.742C197.901 179.406 198.337 179.158 198.812 179.017C199.286 178.876 199.787 178.846 200.275 178.929L209.975 192.835C209.975 192.835 216.606 202.586 217.068 204.237C217.53 205.888 218.699 214.694 216.144 218.646Z" fill="#F8EFE5"/>
<path d="M173.625 203.305L170.843 203.272" stroke="#1B1B1B" stroke-width="1.36372" stroke-linecap="round" stroke-linejoin="round"/>
<path opacity="0.84" d="M178.249 203.689C186.627 204.106 193.624 204.352 197.247 203.967C198.079 203.911 198.887 203.665 199.609 203.248C200.331 202.831 200.948 202.254 201.412 201.562C202.044 200.614 202.402 199.51 202.448 198.372C202.493 197.234 202.224 196.105 201.67 195.11C200.052 192.063 197.227 186.402 196.581 183.358C196.364 182.556 196.411 181.705 196.717 180.932C197.023 180.159 197.57 179.505 198.278 179.069C198.747 178.764 199.318 178.655 199.867 178.765C200.416 178.875 200.9 179.196 201.216 179.658L216.054 201.934C217.421 203.987 218.101 208.777 218.101 208.777C217.902 225.685 208.016 231.387 198.194 231.644M198.194 231.644C194.329 231.744 201.047 231.759 198.194 231.644ZM198.194 231.644C194.804 231.504 185.646 230.259 183.107 228.129L176.148 222.292C175.301 221.576 174.623 220.68 174.163 219.67C173.704 218.66 173.473 217.561 173.489 216.451L173.654 202.471C173.671 202.101 173.832 201.753 174.105 201.502C174.377 201.252 174.737 201.119 175.107 201.133C175.85 201.125 176.572 201.375 177.151 201.842C177.729 202.308 178.127 202.961 178.277 203.689C179.025 207.977 179.551 212.302 179.851 216.645C179.851 216.645 185.255 221 187.053 222.739" stroke="#1B1B1B" stroke-width="1.36372" stroke-linecap="round" stroke-linejoin="round"/>
<path opacity="0.84" d="M159.066 210.081L157.95 209.85C156.864 209.63 155.868 209.093 155.087 208.307C149.929 203.109 142.351 194.265 139.491 190.849C139.354 190.687 139.258 190.495 139.208 190.288C139.159 190.082 139.16 189.867 139.209 189.66C139.258 189.454 139.355 189.262 139.492 189.1C139.63 188.938 139.803 188.81 139.998 188.727C140.695 188.413 141.459 188.274 142.222 188.322C142.986 188.371 143.726 188.606 144.377 189.006C147.932 191.412 151.27 194.122 154.355 197.106" stroke="#1B1B1B" stroke-width="1.36372" stroke-linecap="round" stroke-linejoin="round"/>
<path d="M166.944 214.227L163.262 213.484C162.52 213.344 161.825 213.016 161.245 212.532C160.666 212.048 160.219 211.423 159.949 210.717L152.64 190.63C152.568 190.418 152.549 190.193 152.584 189.972C152.62 189.752 152.709 189.543 152.844 189.365C152.979 189.187 153.155 189.045 153.358 188.951C153.561 188.858 153.784 188.815 154.007 188.828L155.47 188.845C156.055 188.844 156.63 188.999 157.134 189.294C157.639 189.589 158.056 190.014 158.342 190.524C160.068 193.718 163.675 200.779 164.422 204.57" stroke="#1B1B1B" stroke-width="1.36372" stroke-linecap="round" stroke-linejoin="round"/>
<path d="M173.425 220.004L170.3 218.977C169.607 218.761 168.978 218.374 168.473 217.852C167.967 217.329 167.601 216.688 167.408 215.988L162.345 196.663C162.3 196.456 162.303 196.242 162.354 196.037C162.405 195.831 162.502 195.641 162.638 195.479C162.775 195.317 162.946 195.189 163.14 195.104C163.334 195.019 163.544 194.979 163.756 194.989L165.083 195.004C165.739 195.003 166.381 195.2 166.923 195.57C167.466 195.94 167.884 196.465 168.122 197.077C169.002 199.578 170.596 203.961 171.749 207.966L173.496 213.996" stroke="#1B1B1B" stroke-width="1.36372" stroke-linecap="round" stroke-linejoin="round"/>
<g clip-path="url(#clip1_2_247)">
<path d="M151.722 139.928C143.909 139.928 137.576 133.594 137.576 125.782C137.576 117.97 143.909 111.637 151.722 111.637C159.534 111.637 165.867 117.97 165.867 125.782C165.867 133.594 159.534 139.928 151.722 139.928Z" fill="#0F86A1"/>
<path d="M180.199 117.535C174.968 117.535 170.727 113.294 170.727 108.063C170.727 102.831 174.968 98.5898 180.199 98.5898C185.431 98.5898 189.672 102.831 189.672 108.063C189.672 113.294 185.431 117.535 180.199 117.535Z" stroke="#1B1B1B" stroke-width="1.4059" stroke-linecap="round" stroke-linejoin="round"/>
<path d="M137.576 99.4102C134.96 99.4102 132.84 97.2897 132.84 94.6739C132.84 92.058 134.96 89.9375 137.576 89.9375C140.192 89.9375 142.313 92.058 142.313 94.6739C142.313 97.2897 140.192 99.4102 137.576 99.4102Z" fill="#1B1B1B"/>
<path d="M126 116.5C126 132.24 138.76 145 154.5 145C170.24 145 183 132.24 183 116.5C183 100.76 170.24 88 154.5 88C138.76 88 126 100.76 126 116.5ZM181.788 116.5C181.788 131.571 169.571 143.788 154.5 143.788C139.429 143.788 127.212 131.571 127.212 116.5C127.212 101.429 139.429 89.2117 154.5 89.2117C169.571 89.2117 181.788 101.429 181.788 116.5Z" fill="#1B1B1B"/>
<path d="M137.862 144.017C133.64 144.017 130.217 140.594 130.217 136.372C130.217 132.149 133.64 128.727 137.862 128.727C142.085 128.727 145.508 132.149 145.508 136.372C145.508 140.594 142.085 144.017 137.862 144.017Z" fill="#EBC7B5"/>
</g>
</g>
<path d="M315.192 28.3701L387.126 20.5655L355.94 54.6507L315.192 28.3701Z" fill="#EBC7B5"/>
<path d="M387.126 20.5655L328.927 37.2263L335.992 56.3088L336.623 42.1954L387.126 20.5655Z" fill="#EBC7B5"/>
<path d="M346.961 48.8615L335.99 56.3085L336.622 42.1952L346.961 48.8615Z" fill="#EBC7B5"/>
<path d="M372.703 27.049L337.071 43.0764L336.093 55.0354" stroke="#1B1B1B" stroke-width="1.5" stroke-linecap="round" stroke-linejoin="round"/>
<path d="M355.94 54.6507L387.126 20.5655L347.882 24.8242" stroke="#1B1B1B" stroke-width="1.5" stroke-linecap="round" stroke-linejoin="round"/>
<defs>
<clipPath id="clip0_2_247">
<rect width="603" height="497" fill="white" transform="translate(0 83)"/>
</clipPath>
<clipPath id="clip1_2_247">
<rect width="65" height="57" fill="white" transform="translate(126 88)"/>
</clipPath>
</defs>
</svg>
